<mxfile host="65bd71144e">
    <diagram name="Page-1" id="MvAOCUo7Z8LIqj7sWBaV">
        <mxGraphModel dx="2017" dy="555" grid="1" gridSize="10" guides="1" tooltips="1" connect="1" arrows="1" fold="1" page="1" pageScale="1" pageWidth="850" pageHeight="1100" math="0" shadow="0">
            <root>
                <mxCell id="0"/>
                <mxCell id="1" parent="0"/>
                <mxCell id="mXtHfuQZkS4DCQgouvcR-1" value="&lt;font style=&quot;font-size: 22px;&quot;&gt;USER&lt;/font&gt;" style="rounded=0;whiteSpace=wrap;html=1;" parent="1" vertex="1">
                    <mxGeometry x="10" y="290" width="120" height="60" as="geometry"/>
                </mxCell>
                <mxCell id="mXtHfuQZkS4DCQgouvcR-3" value="&lt;font style=&quot;font-size: 22px;&quot;&gt;CONTACT&lt;/font&gt;" style="rounded=0;whiteSpace=wrap;html=1;" parent="1" vertex="1">
                    <mxGeometry x="800" y="320" width="120" height="60" as="geometry"/>
                </mxCell>
                <mxCell id="mXtHfuQZkS4DCQgouvcR-4" value="Name" style="ellipse;whiteSpace=wrap;html=1;" parent="1" vertex="1">
                    <mxGeometry x="-40" y="120" width="60" height="40" as="geometry"/>
                </mxCell>
                <mxCell id="mXtHfuQZkS4DCQgouvcR-5" value="Email" style="ellipse;whiteSpace=wrap;html=1;" parent="1" vertex="1">
                    <mxGeometry x="40" y="120" width="60" height="40" as="geometry"/>
                </mxCell>
                <mxCell id="mXtHfuQZkS4DCQgouvcR-6" value="Possword" style="ellipse;whiteSpace=wrap;html=1;" parent="1" vertex="1">
                    <mxGeometry x="120" y="120" width="60" height="40" as="geometry"/>
                </mxCell>
                <mxCell id="mXtHfuQZkS4DCQgouvcR-7" value="About" style="ellipse;whiteSpace=wrap;html=1;" parent="1" vertex="1">
                    <mxGeometry x="190" y="150" width="60" height="40" as="geometry"/>
                </mxCell>
                <mxCell id="mXtHfuQZkS4DCQgouvcR-8" value="Image" style="ellipse;whiteSpace=wrap;html=1;" parent="1" vertex="1">
                    <mxGeometry x="220" y="190" width="60" height="40" as="geometry"/>
                </mxCell>
                <mxCell id="mXtHfuQZkS4DCQgouvcR-9" value="Role" style="ellipse;whiteSpace=wrap;html=1;" parent="1" vertex="1">
                    <mxGeometry x="-150" y="190" width="70" height="40" as="geometry"/>
                </mxCell>
                <mxCell id="mXtHfuQZkS4DCQgouvcR-10" value="Enabled" style="ellipse;whiteSpace=wrap;html=1;" parent="1" vertex="1">
                    <mxGeometry x="-170" y="250" width="70" height="40" as="geometry"/>
                </mxCell>
                <mxCell id="mXtHfuQZkS4DCQgouvcR-11" value="&lt;u&gt;Id&lt;/u&gt;" style="ellipse;whiteSpace=wrap;html=1;" parent="1" vertex="1">
                    <mxGeometry x="-110" y="150" width="60" height="40" as="geometry"/>
                </mxCell>
                <mxCell id="mXtHfuQZkS4DCQgouvcR-12" value="" style="endArrow=none;html=1;rounded=0;entryX=1;entryY=1;entryDx=0;entryDy=0;exitX=0.25;exitY=0;exitDx=0;exitDy=0;" parent="1" source="mXtHfuQZkS4DCQgouvcR-1" target="mXtHfuQZkS4DCQgouvcR-11" edge="1">
                    <mxGeometry width="50" height="50" relative="1" as="geometry">
                        <mxPoint x="270" y="320" as="sourcePoint"/>
                        <mxPoint x="320" y="270" as="targetPoint"/>
                    </mxGeometry>
                </mxCell>
                <mxCell id="mXtHfuQZkS4DCQgouvcR-13" value="" style="endArrow=none;html=1;rounded=0;entryX=1;entryY=1;entryDx=0;entryDy=0;exitX=0.5;exitY=0;exitDx=0;exitDy=0;" parent="1" source="mXtHfuQZkS4DCQgouvcR-1" edge="1">
                    <mxGeometry width="50" height="50" relative="1" as="geometry">
                        <mxPoint x="89" y="266" as="sourcePoint"/>
                        <mxPoint x="-10" y="160" as="targetPoint"/>
                    </mxGeometry>
                </mxCell>
                <mxCell id="mXtHfuQZkS4DCQgouvcR-14" value="" style="endArrow=none;html=1;rounded=0;entryX=0.5;entryY=1;entryDx=0;entryDy=0;exitX=0.75;exitY=0;exitDx=0;exitDy=0;" parent="1" source="mXtHfuQZkS4DCQgouvcR-1" target="mXtHfuQZkS4DCQgouvcR-5" edge="1">
                    <mxGeometry width="50" height="50" relative="1" as="geometry">
                        <mxPoint x="79" y="266" as="sourcePoint"/>
                        <mxPoint x="-20" y="160" as="targetPoint"/>
                    </mxGeometry>
                </mxCell>
                <mxCell id="mXtHfuQZkS4DCQgouvcR-15" value="" style="endArrow=none;html=1;rounded=0;entryX=0;entryY=1;entryDx=0;entryDy=0;exitX=1;exitY=0.25;exitDx=0;exitDy=0;" parent="1" source="mXtHfuQZkS4DCQgouvcR-1" target="mXtHfuQZkS4DCQgouvcR-8" edge="1">
                    <mxGeometry width="50" height="50" relative="1" as="geometry">
                        <mxPoint x="289" y="290" as="sourcePoint"/>
                        <mxPoint x="190" y="184" as="targetPoint"/>
                    </mxGeometry>
                </mxCell>
                <mxCell id="mXtHfuQZkS4DCQgouvcR-16" value="" style="endArrow=none;html=1;rounded=0;entryX=1;entryY=1;entryDx=0;entryDy=0;exitX=0;exitY=0.25;exitDx=0;exitDy=0;" parent="1" source="mXtHfuQZkS4DCQgouvcR-1" target="mXtHfuQZkS4DCQgouvcR-9" edge="1">
                    <mxGeometry width="50" height="50" relative="1" as="geometry">
                        <mxPoint x="80" y="330" as="sourcePoint"/>
                        <mxPoint x="-19" y="224" as="targetPoint"/>
                    </mxGeometry>
                </mxCell>
                <mxCell id="mXtHfuQZkS4DCQgouvcR-17" value="" style="endArrow=none;html=1;rounded=0;entryX=0.5;entryY=1;entryDx=0;entryDy=0;exitX=0.75;exitY=0;exitDx=0;exitDy=0;" parent="1" source="mXtHfuQZkS4DCQgouvcR-1" target="mXtHfuQZkS4DCQgouvcR-6" edge="1">
                    <mxGeometry width="50" height="50" relative="1" as="geometry">
                        <mxPoint x="150" y="250" as="sourcePoint"/>
                        <mxPoint x="40" y="200" as="targetPoint"/>
                    </mxGeometry>
                </mxCell>
                <mxCell id="mXtHfuQZkS4DCQgouvcR-18" value="" style="endArrow=none;html=1;rounded=0;entryX=0;entryY=1;entryDx=0;entryDy=0;exitX=1;exitY=0;exitDx=0;exitDy=0;" parent="1" source="mXtHfuQZkS4DCQgouvcR-1" target="mXtHfuQZkS4DCQgouvcR-7" edge="1">
                    <mxGeometry width="50" height="50" relative="1" as="geometry">
                        <mxPoint x="160" y="260" as="sourcePoint"/>
                        <mxPoint x="50" y="210" as="targetPoint"/>
                    </mxGeometry>
                </mxCell>
                <mxCell id="mXtHfuQZkS4DCQgouvcR-19" value="" style="endArrow=none;html=1;rounded=0;entryX=1;entryY=1;entryDx=0;entryDy=0;exitX=0;exitY=0.5;exitDx=0;exitDy=0;" parent="1" source="mXtHfuQZkS4DCQgouvcR-1" edge="1">
                    <mxGeometry width="50" height="50" relative="1" as="geometry">
                        <mxPoint y="350" as="sourcePoint"/>
                        <mxPoint x="-100" y="269" as="targetPoint"/>
                    </mxGeometry>
                </mxCell>
                <mxCell id="mXtHfuQZkS4DCQgouvcR-21" value="PhoneNo." style="ellipse;whiteSpace=wrap;html=1;" parent="1" vertex="1">
                    <mxGeometry x="540" y="230" width="70" height="50" as="geometry"/>
                </mxCell>
                <mxCell id="mXtHfuQZkS4DCQgouvcR-22" value="Description" style="ellipse;whiteSpace=wrap;html=1;" parent="1" vertex="1">
                    <mxGeometry x="580" y="160" width="80" height="50" as="geometry"/>
                </mxCell>
                <mxCell id="mXtHfuQZkS4DCQgouvcR-23" value="&lt;u&gt;cId&lt;/u&gt;" style="ellipse;whiteSpace=wrap;html=1;" parent="1" vertex="1">
                    <mxGeometry x="650" y="110" width="60" height="40" as="geometry"/>
                </mxCell>
                <mxCell id="mXtHfuQZkS4DCQgouvcR-24" value="Name" style="ellipse;whiteSpace=wrap;html=1;" parent="1" vertex="1">
                    <mxGeometry x="730" y="100" width="60" height="40" as="geometry"/>
                </mxCell>
                <mxCell id="mXtHfuQZkS4DCQgouvcR-26" value="nickName" style="ellipse;whiteSpace=wrap;html=1;" vertex="1" parent="1">
                    <mxGeometry x="830" y="90" width="60" height="40" as="geometry"/>
                </mxCell>
                <mxCell id="mXtHfuQZkS4DCQgouvcR-27" value="work" style="ellipse;whiteSpace=wrap;html=1;" vertex="1" parent="1">
                    <mxGeometry x="920" y="110" width="60" height="40" as="geometry"/>
                </mxCell>
                <mxCell id="mXtHfuQZkS4DCQgouvcR-28" value="email" style="ellipse;whiteSpace=wrap;html=1;" vertex="1" parent="1">
                    <mxGeometry x="990" y="160" width="60" height="40" as="geometry"/>
                </mxCell>
                <mxCell id="mXtHfuQZkS4DCQgouvcR-29" value="Image" style="ellipse;whiteSpace=wrap;html=1;" vertex="1" parent="1">
                    <mxGeometry x="1050" y="220" width="60" height="40" as="geometry"/>
                </mxCell>
                <mxCell id="mXtHfuQZkS4DCQgouvcR-30" value="" style="endArrow=none;html=1;rounded=0;exitX=1;exitY=0.25;exitDx=0;exitDy=0;entryX=0;entryY=1;entryDx=0;entryDy=0;" edge="1" parent="1" source="mXtHfuQZkS4DCQgouvcR-3" target="mXtHfuQZkS4DCQgouvcR-29">
                    <mxGeometry width="50" height="50" relative="1" as="geometry">
                        <mxPoint x="920" y="270" as="sourcePoint"/>
                        <mxPoint x="970" y="220" as="targetPoint"/>
                    </mxGeometry>
                </mxCell>
                <mxCell id="mXtHfuQZkS4DCQgouvcR-31" value="" style="endArrow=none;html=1;rounded=0;exitX=0.75;exitY=0;exitDx=0;exitDy=0;entryX=0;entryY=1;entryDx=0;entryDy=0;" edge="1" parent="1" source="mXtHfuQZkS4DCQgouvcR-3" target="mXtHfuQZkS4DCQgouvcR-27">
                    <mxGeometry width="50" height="50" relative="1" as="geometry">
                        <mxPoint x="860" y="190" as="sourcePoint"/>
                        <mxPoint x="910" y="140" as="targetPoint"/>
                    </mxGeometry>
                </mxCell>
                <mxCell id="mXtHfuQZkS4DCQgouvcR-32" value="" style="endArrow=none;html=1;rounded=0;exitX=1;exitY=0;exitDx=0;exitDy=0;entryX=0;entryY=1;entryDx=0;entryDy=0;" edge="1" parent="1" source="mXtHfuQZkS4DCQgouvcR-3" target="mXtHfuQZkS4DCQgouvcR-28">
                    <mxGeometry width="50" height="50" relative="1" as="geometry">
                        <mxPoint x="920" y="210" as="sourcePoint"/>
                        <mxPoint x="970" y="160" as="targetPoint"/>
                    </mxGeometry>
                </mxCell>
                <mxCell id="mXtHfuQZkS4DCQgouvcR-33" value="" style="endArrow=none;html=1;rounded=0;entryX=1;entryY=1;entryDx=0;entryDy=0;exitX=0;exitY=0.25;exitDx=0;exitDy=0;" edge="1" parent="1" source="mXtHfuQZkS4DCQgouvcR-3" target="mXtHfuQZkS4DCQgouvcR-22">
                    <mxGeometry width="50" height="50" relative="1" as="geometry">
                        <mxPoint x="790" y="360" as="sourcePoint"/>
                        <mxPoint x="840" y="310" as="targetPoint"/>
                    </mxGeometry>
                </mxCell>
                <mxCell id="mXtHfuQZkS4DCQgouvcR-34" value="" style="endArrow=none;html=1;rounded=0;entryX=0.5;entryY=1;entryDx=0;entryDy=0;exitX=0.5;exitY=0;exitDx=0;exitDy=0;" edge="1" parent="1" source="mXtHfuQZkS4DCQgouvcR-3" target="mXtHfuQZkS4DCQgouvcR-26">
                    <mxGeometry width="50" height="50" relative="1" as="geometry">
                        <mxPoint x="760" y="320" as="sourcePoint"/>
                        <mxPoint x="810" y="270" as="targetPoint"/>
                    </mxGeometry>
                </mxCell>
                <mxCell id="mXtHfuQZkS4DCQgouvcR-35" value="" style="endArrow=none;html=1;rounded=0;entryX=0.5;entryY=1;entryDx=0;entryDy=0;exitX=0.25;exitY=0;exitDx=0;exitDy=0;" edge="1" parent="1" source="mXtHfuQZkS4DCQgouvcR-3" target="mXtHfuQZkS4DCQgouvcR-24">
                    <mxGeometry width="50" height="50" relative="1" as="geometry">
                        <mxPoint x="770" y="330" as="sourcePoint"/>
                        <mxPoint x="820" y="280" as="targetPoint"/>
                    </mxGeometry>
                </mxCell>
                <mxCell id="mXtHfuQZkS4DCQgouvcR-36" value="" style="endArrow=none;html=1;rounded=0;exitX=1;exitY=1;exitDx=0;exitDy=0;entryX=0;entryY=0;entryDx=0;entryDy=0;" edge="1" parent="1" source="mXtHfuQZkS4DCQgouvcR-23" target="mXtHfuQZkS4DCQgouvcR-3">
                    <mxGeometry width="50" height="50" relative="1" as="geometry">
                        <mxPoint x="780" y="340" as="sourcePoint"/>
                        <mxPoint x="830" y="290" as="targetPoint"/>
                    </mxGeometry>
                </mxCell>
                <mxCell id="mXtHfuQZkS4DCQgouvcR-37" value="" style="endArrow=none;html=1;rounded=0;entryX=1;entryY=1;entryDx=0;entryDy=0;exitX=0;exitY=0.25;exitDx=0;exitDy=0;" edge="1" parent="1" source="mXtHfuQZkS4DCQgouvcR-3" target="mXtHfuQZkS4DCQgouvcR-21">
                    <mxGeometry width="50" height="50" relative="1" as="geometry">
                        <mxPoint x="810" y="345" as="sourcePoint"/>
                        <mxPoint x="658" y="213" as="targetPoint"/>
                    </mxGeometry>
                </mxCell>
                <mxCell id="mXtHfuQZkS4DCQgouvcR-38" value="Has" style="html=1;whiteSpace=wrap;aspect=fixed;shape=isoRectangle;rotation=0;" vertex="1" parent="1">
                    <mxGeometry x="403.33" y="396.67" width="83.33" height="50" as="geometry"/>
                </mxCell>
                <mxCell id="mXtHfuQZkS4DCQgouvcR-39" value="" style="endArrow=none;html=1;rounded=0;exitX=1;exitY=1;exitDx=0;exitDy=0;entryX=0.003;entryY=0.5;entryDx=0;entryDy=0;entryPerimeter=0;" edge="1" parent="1" source="mXtHfuQZkS4DCQgouvcR-1" target="mXtHfuQZkS4DCQgouvcR-38">
                    <mxGeometry width="50" height="50" relative="1" as="geometry">
                        <mxPoint x="430" y="460" as="sourcePoint"/>
                        <mxPoint x="480" y="410" as="targetPoint"/>
                    </mxGeometry>
                </mxCell>
                <mxCell id="mXtHfuQZkS4DCQgouvcR-40" value="" style="endArrow=none;html=1;rounded=0;exitX=0.997;exitY=0.5;exitDx=0;exitDy=0;entryX=0;entryY=1;entryDx=0;entryDy=0;exitPerimeter=0;" edge="1" parent="1" source="mXtHfuQZkS4DCQgouvcR-38" target="mXtHfuQZkS4DCQgouvcR-3">
                    <mxGeometry width="50" height="50" relative="1" as="geometry">
                        <mxPoint x="570" y="340" as="sourcePoint"/>
                        <mxPoint x="848" y="411" as="targetPoint"/>
                    </mxGeometry>
                </mxCell>
                <mxCell id="mXtHfuQZkS4DCQgouvcR-41" value="&lt;h2&gt;&lt;font style=&quot;font-size: 20px;&quot;&gt;1&lt;/font&gt;&lt;/h2&gt;" style="text;html=1;align=center;verticalAlign=middle;resizable=0;points=[];autosize=1;strokeColor=none;fillColor=none;" vertex="1" parent="1">
                    <mxGeometry x="195" y="358" width="30" height="70" as="geometry"/>
                </mxCell>
                <mxCell id="mXtHfuQZkS4DCQgouvcR-42" value="&lt;font style=&quot;font-size: 21px;&quot;&gt;n&lt;/font&gt;" style="text;html=1;align=center;verticalAlign=middle;resizable=0;points=[];autosize=1;strokeColor=none;fillColor=none;" vertex="1" parent="1">
                    <mxGeometry x="615" y="401.67" width="40" height="40" as="geometry"/>
                </mxCell>
            </root>
        </mxGraphModel>
    </diagram>
</mxfile>